<?xml version="1.0" standalone="no"?>
<!DOCTYPE svg PUBLIC "-//W3C//DTD SVG 20010904//EN"
 "http://www.w3.org/TR/2001/REC-SVG-20010904/DTD/svg10.dtd">
<svg version="1.0" xmlns="http://www.w3.org/2000/svg"
 width="1282.000000pt" height="1282.000000pt" viewBox="0 0 1282.000000 1282.000000"
 preserveAspectRatio="xMidYMid meet">
<metadata>
Created by potrace 1.14, written by Peter Selinger 2001-2017
</metadata>
<g transform="translate(0.000000,1282.000000) scale(0.100000,-0.100000)"
fill="#000000" stroke="none">
<path d="M6088 12815 c-2 -1 -46 -5 -98 -9 -130 -8 -315 -24 -315 -26 0 -3
-31 -7 -95 -15 -36 -4 -72 -8 -80 -10 -8 -2 -35 -6 -60 -10 -116 -17 -223 -35
-290 -49 -66 -14 -76 -17 -95 -20 -68 -14 -209 -48 -216 -52 -4 -2 -27 -8 -51
-13 -182 -39 -587 -174 -853 -286 -193 -81 -451 -206 -605 -293 -63 -36 -135
-76 -160 -90 -25 -14 -75 -45 -113 -69 -37 -24 -69 -43 -71 -43 -3 0 -33 -19
-68 -43 -35 -24 -92 -63 -128 -87 -62 -42 -228 -161 -260 -187 -8 -6 -62 -49
-120 -95 -122 -96 -120 -94 -315 -270 -277 -250 -566 -564 -791 -863 -116
-153 -308 -433 -359 -522 -6 -10 -29 -49 -52 -88 -22 -38 -53 -92 -69 -120
-15 -27 -36 -66 -47 -85 -158 -280 -338 -696 -452 -1045 -25 -77 -52 -161 -61
-187 -8 -25 -22 -70 -29 -100 -7 -29 -20 -80 -29 -113 -51 -198 -110 -485
-131 -638 -4 -27 -8 -56 -10 -65 -1 -10 -10 -80 -19 -157 -9 -77 -18 -156 -21
-176 -26 -220 -27 -943 0 -1147 2 -20 7 -62 10 -92 47 -509 180 -1075 375
-1600 92 -248 295 -682 420 -895 29 -49 64 -110 78 -135 40 -71 151 -241 239
-370 378 -547 900 -1084 1453 -1495 152 -113 452 -309 618 -404 140 -80 428
-228 527 -270 28 -12 57 -26 66 -30 9 -5 56 -26 105 -45 49 -20 98 -41 109
-46 66 -32 555 -201 617 -214 13 -3 38 -9 57 -15 34 -11 396 -97 441 -105 14
-3 61 -11 105 -20 79 -15 244 -40 340 -51 28 -3 61 -8 75 -10 14 -3 50 -7 80
-10 30 -3 73 -8 95 -10 179 -20 808 -27 1010 -12 149 11 335 31 410 44 17 2
43 6 58 8 89 12 122 18 222 35 149 27 157 28 260 51 383 84 788 216 1155 374
149 64 462 216 558 272 467 267 842 534 1184 844 200 181 491 481 628 649 25
30 47 57 50 60 13 11 191 242 221 287 18 27 35 50 38 53 16 13 169 244 243
365 372 606 639 1265 793 1955 41 182 40 177 50 240 4 25 9 54 11 65 8 41 25
155 39 260 4 28 8 61 10 75 2 14 7 54 10 90 3 36 8 83 10 105 26 243 26 963 1
1115 -3 14 -7 61 -11 105 -3 44 -10 112 -16 150 -5 39 -12 88 -15 110 -15 111
-71 422 -78 434 -2 3 -7 24 -10 46 -4 22 -18 85 -32 140 -14 55 -28 111 -30
124 -3 14 -7 28 -10 33 -3 4 -7 18 -9 30 -17 87 -171 545 -219 653 -8 17 -26
59 -41 95 -41 98 -53 127 -71 167 -29 65 -152 314 -197 398 -90 168 -283 487
-299 493 -4 2 -8 8 -8 13 0 5 -18 35 -40 67 -23 31 -58 82 -79 112 -31 44
-115 156 -168 225 -16 21 -139 171 -163 200 -154 181 -449 484 -610 625 -47
41 -87 78 -90 81 -9 11 -183 153 -275 224 -399 311 -907 611 -1381 815 -345
149 -804 295 -1179 376 -38 9 -79 17 -90 20 -31 6 -245 43 -290 49 -22 3 -69
10 -105 15 -36 5 -85 12 -110 15 -25 3 -56 7 -70 9 -14 3 -65 8 -115 12 -49 3
-108 8 -130 10 -45 5 -763 13 -767 9z"/>
</g>
</svg>
